Coordinates
version=1
nRows=7
nColumns=42
inDegrees=yes

Units are S.I. units (second, meters, Newtons, ...)
If the header above contains a line with 'inDegrees', this indicates whether rotational values are in degrees (yes) or radians (no).

endheader
time	pelvis_tilt	pelvis_list	pelvis_rotation	pelvis_tx	pelvis_ty	pelvis_tz	hip_flexion_r	hip_adduction_r	hip_rotation_r	knee_angle_r	knee_angle_r_beta	ankle_angle_r	subtalar_angle_r	mtp_angle_r	hip_flexion_l	hip_adduction_l	hip_rotation_l	knee_angle_l	knee_angle_l_beta	ankle_angle_l	subtalar_angle_l	mtp_angle_l	lumbar_extension	lumbar_bending	lumbar_rotation	sh_tx_r	sh_ty_r	sh_tz_r	sh_plane_elev_r	sh_elev_r	sh_axial_rot_r	elbow_flex_r	pro_sup_r	sh_tx_l	sh_ty_l	sh_tz_l	sh_plane_elev_l	sh_elev_l	sh_axial_rot_l	elbow_flex_l	pro_sup_l
      2.73333330	     -6.29983689	      0.09480704	     -0.50646629	      0.25373437	      0.96395993	     -0.04426126	      4.85904357	     -7.96898853	    -12.55464045	      1.77807284	      0.03103323	     -0.15758201	     -5.25981438	     -7.49999987	      4.95114609	     -4.80461125	    -10.89714589	      1.02165665	      0.01783127	      6.35511133	      3.88960856	     -7.49999987	      6.36581778	      2.00000770	     -7.40541619	     -0.01381436	     -0.00798908	     -0.00606846	     -9.63483008	      4.78337264	      3.13520447	     28.00536690	    112.78264503	     -0.02142383	      0.03057493	     -0.00457016	     76.82773666	    101.77967196	      3.42471129	      6.05426591	      2.64336191
      2.75000000	     -6.35330123	      0.10902698	     -0.48082684	      0.25370091	      0.96399904	     -0.04419586	      4.98460323	     -7.94887512	    -12.49712836	      1.67741009	      0.02927633	     -0.26893222	     -5.36031997	     -7.49999987	      5.11867120	     -4.80318941	    -10.85498585	      1.04075463	      0.01816460	      6.30050323	      3.94419861	     -7.49999987	      6.45049333	      1.97759061	     -7.47359504	     -0.01182110	     -0.00781031	     -0.00605576	     -9.27621733	      4.84842776	      2.48419607	     28.04313281	    113.03733225	     -0.01970288	      0.03166373	     -0.00456651	     76.98772420	    101.89863095	      3.26715750	      5.59656155	      2.67525634
      2.76666670	     -6.34920211	      0.06122153	     -0.48331835	      0.25827024	      0.96390279	     -0.04000372	      4.97582570	     -7.79074390	    -12.47133283	      1.64315469	      0.02867846	     -0.29362791	     -5.35196870	     -7.49999987	      5.13040111	     -4.92837548	    -10.83113327	      1.02523665	      0.01789376	      6.23795912	      3.99872859	     -7.49999987	      6.50135832	      1.95827056	     -7.54565080	     -0.01130005	     -0.00771177	     -0.00611135	     -9.25612261	      4.72793802	      2.50963271	     28.02234398	    113.04776513	     -0.02025776	      0.03242724	     -0.00458655	     77.10822697	    102.08337506	      3.29433248	      5.65014519	      2.68317527
      2.78333330	     -6.21735241	      0.02668812	     -0.44928733	      0.25809587	      0.96420423	     -0.04003608	      4.76733647	     -7.65150134	    -12.60193062	      1.55345944	      0.02711298	     -0.25452301	     -5.34345978	     -7.49999987	      5.00925710	     -5.03810918	    -10.97213559	      1.04582357	      0.01825306	      6.29550838	      4.36857017	     -7.49999987	      6.17054326	      1.86838848	     -7.19703204	     -0.01294506	     -0.00741309	     -0.00611370	     -8.66511125	      4.71396110	      2.25430867	     28.03663979	    112.13354440	     -0.02113056	      0.03215603	     -0.00466620	     77.49925168	    102.71978898	      2.14868254	      6.05529018	      2.57119156
      2.80000000	     -6.26941996	      0.01173050	     -0.44978080	      0.25810306	      0.96400056	     -0.04006196	      4.79465950	     -7.56489673	    -12.50528364	      1.57406211	      0.02747257	     -0.38789889	     -5.55084260	     -7.49999987	      5.07851565	     -5.15182467	    -10.99511819	      1.03818731	      0.01811979	      6.20673888	      4.51986369	     -7.49999987	      6.26249284	      1.67810676	     -6.48303542	     -0.01560036	     -0.00747933	     -0.00599925	     -8.19671529	      4.59519535	      1.78303817	     27.44333251	    110.17487749	     -0.01974663	      0.03349029	     -0.00464630	     78.17869714	    102.79653844	      1.18720905	      6.13942854	      2.53592975
      2.81666670	     -6.30459534	     -0.02547342	     -0.42158722	      0.25806182	      0.96399790	     -0.04014512	      4.77064424	     -7.48145961	    -12.46862608	      1.57329322	      0.02745915	     -0.40893820	     -5.57259223	     -7.49999987	      5.11100446	     -5.23274419	    -10.90988724	      1.06574203	      0.01860071	      6.12382096	      4.36808394	     -7.49999987	      6.37544183	      1.74748217	     -6.83778073	     -0.01359225	     -0.00727732	     -0.00607856	     -8.57721139	      4.59191628	      1.96468864	     27.39176687	    113.16052088	     -0.02069073	      0.03383159	     -0.00464832	     77.43322473	    102.81050868	      2.30421741	      6.20864758	      2.67380465
      2.83333330	     -6.52012708	     -0.08835661	     -0.39221849	      0.25764740	      0.96347357	     -0.04055863	      5.26870189	     -7.47196008	    -12.28554018	      2.10413261	      0.03672404	     -0.06861816	     -5.67542098	     -7.49999987	      5.62681794	     -5.36039353	    -10.93962522	      1.65003776	      0.02879859	      6.35464635	      4.25735135	     -7.49999987	      6.85845284	      2.10816952	     -7.17098540	     -0.01153194	     -0.00489395	     -0.00577535	     -7.69008422	      4.85634435	      2.83373766	     26.93159674	    107.69878391	     -0.01993894	      0.03175639	     -0.00487781	     76.17572723	    103.18573644	      1.68079559	      8.04422026	      6.49736629
